<svg width="51" height="51" viewBox="0 0 51 51" fill="none" xmlns="http://www.w3.org/2000/svg">
<path d="M23.4167 46.5477C21.7121 46.5477 20.0837 45.8598 16.8269 44.4842C8.72009 41.0596 4.66667 39.3473 4.66667 36.4671C4.66667 35.6606 4.66667 21.6821 4.66667 15.2977M23.4167 46.5477V24.3702M23.4167 46.5477C24.1258 46.5477 24.7631 46.4286 25.5 46.1904M42.1667 15.2977V24.6727" stroke="white" stroke-width="2" stroke-linecap="round" stroke-linejoin="round"/>
<path d="M15.7623 20.9047L9.6765 17.9598C6.33661 16.3437 4.66667 15.5356 4.66667 14.256C4.66667 12.9763 6.33661 12.1683 9.6765 10.5521L15.7623 7.60727C19.5184 5.78975 21.3965 4.88098 23.4167 4.88098C25.4369 4.88098 27.315 5.78973 31.071 7.60727L37.1569 10.5521C40.4967 12.1683 42.1667 12.9763 42.1667 14.256C42.1667 15.5356 40.4967 16.3437 37.1569 17.9598L31.071 20.9047C27.315 22.7222 25.4369 23.631 23.4167 23.631C21.3965 23.631 19.5184 22.7222 15.7623 20.9047Z" stroke="white" stroke-width="2" stroke-linecap="round" stroke-linejoin="round"/>
<path d="M10.9167 25.7144L15.0833 27.7977" stroke="white" stroke-width="2" stroke-linecap="round" stroke-linejoin="round"/>
<path d="M33.8333 9.04773L13 19.4644" stroke="white" stroke-width="2" stroke-linecap="round" stroke-linejoin="round"/>
<path d="M42.4421 42.712L46.3333 46.5476M44.6821 37.3735C44.6821 41.5114 41.3208 44.866 37.1744 44.866C33.0279 44.866 29.6667 41.5114 29.6667 37.3735C29.6667 33.2356 33.0279 29.881 37.1744 29.881C41.3208 29.881 44.6821 33.2356 44.6821 37.3735Z" stroke="#1F5BFF" stroke-width="2" stroke-linecap="round"/>
</svg>
