<?xml version="1.0" standalone="no"?>
<!DOCTYPE svg PUBLIC "-//W3C//DTD SVG 20010904//EN"
 "http://www.w3.org/TR/2001/REC-SVG-20010904/DTD/svg10.dtd">
<svg version="1.0" xmlns="http://www.w3.org/2000/svg"
 width="201.000000pt" height="199.000000pt" viewBox="0 0 201.000000 199.000000"
 preserveAspectRatio="xMidYMid meet">

<g transform="translate(0.000000,199.000000) scale(0.100000,-0.100000)"
fill="#000000" stroke="none">
<path d="M167 1945 c-22 -11 -45 -29 -51 -40 -6 -11 -19 -30 -28 -43 -16 -22
-17 -88 -18 -858 0 -691 2 -839 14 -866 19 -46 64 -85 111 -96 25 -6 333 -9
841 -7 862 4 837 2 893 55 13 13 32 41 42 64 18 39 19 82 19 823 0 533 -4 798
-11 833 -16 73 -76 136 -139 144 -25 4 -402 7 -838 9 -776 2 -795 2 -835 -18z
m1280 -535 c56 -25 103 -89 103 -143 0 -69 -15 -77 -152 -77 -65 0 -118 -4
-118 -8 0 -15 34 -40 63 -47 18 -5 44 -1 73 10 56 21 91 14 100 -21 13 -53
-63 -98 -166 -97 -133 2 -228 91 -218 207 9 103 64 168 161 191 59 14 93 11
154 -15z m-833 -12 c9 -12 16 -42 16 -66 0 -24 4 -42 9 -40 4 2 31 31 60 66
43 52 57 62 83 62 48 0 68 -24 68 -82 0 -26 4 -48 8 -48 5 0 32 29 60 65 45
55 57 65 84 65 63 0 68 -14 68 -196 0 -157 -1 -163 -22 -178 -55 -39 -108 -4
-108 69 0 25 -4 45 -8 45 -5 0 -30 -27 -56 -59 -48 -60 -63 -71 -95 -71 -37 0
-55 26 -61 86 l-5 57 -55 -66 c-60 -73 -90 -88 -129 -66 l-26 15 -3 163 c-2
142 0 166 14 182 24 27 79 25 98 -3z m833 -444 c96 -35 148 -155 107 -252 -35
-84 -113 -134 -210 -134 -180 0 -278 170 -182 312 31 45 68 70 125 86 53 14
96 11 160 -12z m-845 -11 c13 -11 18 -30 18 -65 0 -55 9 -60 40 -20 62 79 91
102 125 102 28 0 37 -6 50 -30 8 -16 15 -46 15 -67 l0 -38 61 68 c52 57 66 67
94 67 58 0 65 -22 65 -194 0 -140 -1 -151 -22 -173 -25 -27 -54 -29 -86 -7
-18 12 -22 25 -22 70 0 31 -4 54 -9 52 -5 -2 -32 -31 -61 -66 -57 -69 -87 -83
-125 -58 -22 14 -25 24 -25 71 0 30 -3 55 -8 55 -4 0 -27 -25 -52 -56 -73 -91
-111 -106 -149 -58 -19 24 -21 40 -21 171 0 115 3 149 16 168 19 30 68 34 96
8z"/>
<path d="M1300 1312 c-34 -28 -17 -42 51 -42 64 0 75 12 41 43 -24 22 -64 21
-92 -1z"/>
<path d="M1302 807 c-28 -30 -28 -48 1 -75 42 -40 107 -17 107 38 0 55 -69 79
-108 37z"/>
</g>
</svg>
