<svg width="51" height="51" viewBox="0 0 51 51" fill="none" xmlns="http://www.w3.org/2000/svg">
<path d="M35.9167 42.3811C38.2179 42.3811 40.0833 40.5156 40.0833 38.2144C40.0833 35.9132 38.2179 34.0477 35.9167 34.0477C33.6155 34.0477 31.75 35.9132 31.75 38.2144C31.75 40.5156 33.6155 42.3811 35.9167 42.3811Z" stroke="white" stroke-width="2"/>
<path d="M23.4167 36.1311H31.75M28.625 15.2977H30.5894C33.3194 15.2977 34.6846 15.2977 35.8419 15.953C36.9992 16.6082 37.7708 17.818 39.3142 20.2375C40.3963 21.934 41.5323 23.1654 43.1296 24.2611C44.7377 25.364 45.5025 25.9031 45.9269 26.7686C46.3333 27.5973 46.3333 28.579 46.3333 30.5421C46.3333 33.1302 46.3333 34.4244 45.6063 35.2467C45.575 35.2821 45.5431 35.3165 45.5102 35.3498C44.7448 36.1311 43.5404 36.1311 41.1313 36.1311H40.0833" stroke="white" stroke-width="2" stroke-linecap="round" stroke-linejoin="round"/>
<path d="M27.5833 15.2977L29.6546 20.476C30.6694 23.0131 31.1769 24.2817 32.235 24.9979C33.2931 25.7144 34.6594 25.7144 37.3919 25.7144H44.25" stroke="white" stroke-width="2" stroke-linecap="round" stroke-linejoin="round"/>
<path d="M10.6449 36.1311C7.82675 36.1311 6.41767 36.1311 5.54217 35.2159C4.66667 34.3004 4.66667 32.8273 4.66667 29.8811V15.2977C4.66667 12.3515 4.66667 10.8783 5.54217 9.96302C6.41767 9.04773 7.82675 9.04773 10.6449 9.04773H21.605C24.4233 9.04773 25.8323 9.04773 26.7079 9.96302C27.5833 10.8783 27.5833 12.3515 27.5833 15.2977V36.1311H18.6159" stroke="#E58900" stroke-width="2" stroke-linecap="round" stroke-linejoin="round"/>
<path d="M15.0833 42.3811C17.3845 42.3811 19.25 40.5156 19.25 38.2144C19.25 35.9132 17.3845 34.0477 15.0833 34.0477C12.7822 34.0477 10.9167 35.9132 10.9167 38.2144C10.9167 40.5156 12.7822 42.3811 15.0833 42.3811Z" stroke="white" stroke-width="2"/>
</svg>
